<?xml version="1.0" encoding="utf-8"?>
<!-- Generator: Adobe Illustrator 16.0.0, SVG Export Plug-In . SVG Version: 6.00 Build 0)  -->
<!DOCTYPE svg PUBLIC "-//W3C//DTD SVG 1.1//EN" "http://www.w3.org/Graphics/SVG/1.1/DTD/svg11.dtd">
<svg version="1.1" id="Layer_1" xmlns="http://www.w3.org/2000/svg" xmlns:xlink="http://www.w3.org/1999/xlink" x="0px" y="0px"
	 width="500px" height="422px" viewBox="0 0 500 422" enable-background="new 0 0 500 422" xml:space="preserve">
<g id="BACKGROUND">
</g>
<g>
	<path fill="#ECF3FF" d="M112.414,59.949c15.62,1.045,22.154-9.612,29.494-23.311C162-0.864,206.746,2.75,221.756,25.843
		c10.632,16.357,33.559,12.992,52.104,6.591c18.254-6.301,49.354-12.354,74.127-4.824c21.636,6.577,30.514,30.302,50.234,28.842
		c43.025-3.184,64.716,39.293,56.924,57.818c-5.087,12.091-7.61,25.617-3.477,38.059c4.555,13.704,14.958,24.551,23.367,36.331
		c8.408,11.78,15.181,26.506,11.001,40.325c-3.577,11.826-14.247,20.008-20.871,30.465c-20.568,32.475-0.222,82.242-27.628,109.311
		c-19.618,19.375-51.604,14.902-79.053,18.601c-22.894,3.084-44.436,12.696-67.221,16.466c-46.147,7.627-92.75-9.175-139.535-9.648
		c-16.479-0.165-33.267,1.671-49.228-2.395c-21.295-5.423-39.417-21.809-46.806-42.318C45.501,321.159,55.161,288.4,43.643,260.6
		c-9.383-22.647-32.328-41.076-30.884-65.516c0.897-15.216,11.294-27.943,18.443-41.44C41.831,133.583,27.762,54.284,112.414,59.949
		z M248.592,23.207c-4.105,0-7.434,2.55-7.434,5.695c0,3.145,3.337,5.424,7.434,5.695c13.35,0.882,13.35-4.516,13.35-7.66
		C261.941,21.912,252.697,23.207,248.592,23.207z M384.168,47.491c3.57,2.948,8.119,4.713,12.761,4.951
		c1.239,0.063,2.589-0.016,3.545-0.8c1.185-0.973,1.312-2.957,0.263-4.069c-0.659-0.7-1.621-1.014-2.518-1.377
		c-1.524-0.62-3.021-1.508-3.886-2.899c-0.251-0.403-0.468-0.866-0.883-1.101C390.866,40.742,379.471,43.612,384.168,47.491z
		 M406.908,52.522c1.175,0.406,2.463,0.032,3.646-0.353c0.759-0.246,1.689-0.789,1.485-1.553c-0.098-0.368-0.444-0.613-0.783-0.793
		c-1.557-0.833-3.575-1.447-5.14-0.381C404.552,50.507,405.732,52.116,406.908,52.522z M461.201,159.788
		c0.203,1.771,1.296,3.301,2.354,4.745c2.04,2.782,4.111,5.6,6.807,7.77c1.139,0.919,2.464,1.74,3.932,1.791
		c1.338,0.047,2.618-0.559,3.702-1.336c2.642-1.893,4.424-4.918,4.789-8.127c0.501-4.402-1.548-8.688-3.931-12.438
		c-1.476-2.323-3.194-4.638-5.664-5.883c-4.14-2.088-6.873-0.266-8.029,3.4C464.095,153.08,460.771,156.03,461.201,159.788z
		 M20.82,262.293c-2.18,1.92-0.213,7.539,0.431,11.248c0.192,1.111,0.45,2.262,1.153,3.15c0.959,1.215,2.555,1.713,4.051,2.146
		c2.652,0.771,5.869,1.422,7.895-0.44c1.504-1.383,1.717-3.638,1.713-5.67c-0.002-1.854-0.103-3.711-0.299-5.558
		c-0.096-0.885-0.223-1.801-0.697-2.558c-0.606-0.969-1.688-1.532-2.746-1.979C28.527,261.025,23.001,260.373,20.82,262.293z
		 M154.04,403.059c-1.29,0.262-2.829,0.816-3.017,2.105c-0.153,1.066,0.744,1.977,1.612,2.623
		c7.114,5.307,16.687,5.646,25.593,5.771c1.039,0.016,2.115,0.021,3.072-0.381c1.905-0.803,2.819-3.313,1.932-5.164
		c-0.323-0.676-0.834-1.246-1.373-1.77C174.705,399.279,162.943,401.273,154.04,403.059z M331.697,399.469
		c-8.028,5.873,0.092,11.115,10.23,7.227c5.465-2.098,10.704-4.166,16.297-5.568c1.809-0.453,12.736-2.816,12.737-5.271
		c0.004-6.509-12.313-4.973-20.062-3.889C344.658,392.842,338.318,394.625,331.697,399.469z"/>
</g>
<g id="DESIGNED_BY_FREEPIK">
</g>
<g>
	<g>
		<path fill="#4AB3ED" d="M218.582,189.115H74.235c-4.556,0-8.249-3.693-8.249-8.249v-60.554c0-4.556,3.693-8.249,8.249-8.249
			h144.347c4.556,0,8.249,3.693,8.249,8.249v60.554C226.831,185.422,223.138,189.115,218.582,189.115z"/>
		<path fill="#B4E2FC" d="M216.87,186.761H72.522c-4.556,0-8.249-3.694-8.249-8.249v-60.554c0-4.555,3.693-8.248,8.249-8.248H216.87
			c4.556,0,8.249,3.693,8.249,8.248v60.554C225.118,183.066,221.425,186.761,216.87,186.761z"/>
		<polygon fill="none" stroke="#91D3FF" stroke-miterlimit="10" points="143.513,170.346 139.521,163.432 143.513,156.517 
			151.497,156.517 155.49,163.432 151.497,170.346 		"/>
		<polygon fill="none" stroke="#91D3FF" stroke-miterlimit="10" points="155.392,163.283 151.4,156.368 155.392,149.453 
			163.376,149.453 167.369,156.368 163.376,163.283 		"/>
		<path fill="#91D3FF" d="M122.083,138.817H78.379c-2.235,0-4.047-1.812-4.047-4.047v-15.022c0-2.235,1.812-4.046,4.047-4.046
			h43.703c2.234,0,4.046,1.812,4.046,4.046v15.022C126.129,137.006,124.317,138.817,122.083,138.817z"/>
		<rect x="139.506" y="136.249" fill="#91D3FF" width="37.776" height="0.642"/>
		<rect x="139.506" y="138.497" fill="#91D3FF" width="37.776" height="0.642"/>
		<rect x="139.506" y="140.663" fill="#91D3FF" width="37.776" height="0.642"/>
		<rect x="178.781" y="131.112" fill="#91D3FF" width="35.102" height="47.515"/>
		<rect x="207.889" y="117.842" fill="#91D3FF" width="4.98" height="6.742"/>
		<rect x="201.682" y="117.842" fill="#91D3FF" width="4.981" height="6.742"/>
		<rect x="195.689" y="117.842" fill="#91D3FF" width="4.98" height="6.742"/>
		<rect x="131.907" y="116.559" fill="#91D3FF" width="1.712" height="66.135"/>
		<polygon fill="#91D3FF" points="144.557,130.215 140.564,123.3 144.557,116.386 152.541,116.386 156.533,123.3 152.541,130.215 		
			"/>
		<rect x="158.982" y="116.772" fill="#91D3FF" width="17.444" height="0.642"/>
		<rect x="158.982" y="119.02" fill="#91D3FF" width="17.444" height="0.642"/>
		<rect x="158.982" y="121.187" fill="#91D3FF" width="17.444" height="0.642"/>
		<ellipse fill="#91D3FF" cx="80.379" cy="149.786" rx="5.725" ry="5.833"/>
	</g>
	<g>
		<path fill="#4AB3ED" d="M429.085,206.986H253.162c-3.667,0-6.641-2.973-6.641-6.641v-83.033c0-3.667,2.973-6.641,6.641-6.641
			h175.923c3.668,0,6.642,2.973,6.642,6.641v83.033C435.727,204.014,432.753,206.986,429.085,206.986z"/>
		<path fill="#B4E2FC" d="M426.838,205.061H250.914c-3.667,0-6.64-2.973-6.64-6.641v-83.034c0-3.667,2.974-6.64,6.64-6.64h175.924
			c3.668,0,6.641,2.973,6.641,6.64v83.034C433.479,202.088,430.506,205.061,426.838,205.061z"/>
		<rect x="251.766" y="157.224" fill="#91D3FF" width="69.988" height="8.668"/>
		<rect x="251.766" y="168.622" fill="#91D3FF" width="69.988" height="3.692"/>
		<rect x="251.766" y="174.4" fill="#91D3FF" width="69.988" height="2.569"/>
		<rect x="252.622" y="118.056" fill="#91D3FF" width="67.634" height="32.104"/>
		<rect x="419.109" y="188.526" fill="#91D3FF" width="4.98" height="6.743"/>
		<rect x="412.902" y="188.526" fill="#91D3FF" width="4.98" height="6.743"/>
		<rect x="406.909" y="188.526" fill="#91D3FF" width="4.981" height="6.743"/>
		<polygon fill="#91D3FF" points="376.994,178.159 373.003,171.243 376.994,164.329 384.979,164.329 388.972,171.243 
			384.979,178.159 		"/>
		<rect x="391.983" y="166.08" fill="#91D3FF" width="33.469" height="0.642"/>
		<rect x="391.983" y="168.327" fill="#91D3FF" width="33.469" height="0.642"/>
		<rect x="391.983" y="170.494" fill="#91D3FF" width="33.469" height="0.642"/>
		<rect x="391.983" y="172.34" fill="#91D3FF" width="33.469" height="0.642"/>
		<rect x="391.983" y="174.587" fill="#91D3FF" width="33.469" height="0.642"/>
		<rect x="391.983" y="176.755" fill="#91D3FF" width="33.469" height="0.643"/>
		<rect x="391.983" y="178.655" fill="#91D3FF" width="33.469" height="0.642"/>
		<rect x="391.983" y="180.901" fill="#91D3FF" width="33.469" height="0.643"/>
		<rect x="391.983" y="183.068" fill="#91D3FF" width="33.469" height="0.642"/>
		<rect x="324.161" y="118.699" fill="#91D3FF" width="17.444" height="0.642"/>
		<rect x="324.161" y="120.946" fill="#91D3FF" width="17.444" height="0.642"/>
		<rect x="324.161" y="123.113" fill="#91D3FF" width="17.444" height="0.642"/>
		<path fill="#91D3FF" d="M422.979,135.55c-0.417-0.702-1.081-1.2-1.872-1.402c-0.791-0.202-1.613-0.084-2.314,0.333
			c-0.702,0.417-1.2,1.081-1.403,1.873c-0.021,0.086-0.023,0.172-0.038,0.26l-5.684-0.192l-3.146-5.447l3.466-4.427
			c0.413,0.275,0.883,0.459,1.391,0.508c0.102,0.01,0.2,0.014,0.299,0.014c0.708,0,1.387-0.242,1.939-0.698
			c0.629-0.519,1.02-1.252,1.097-2.065c0.079-0.813-0.164-1.606-0.684-2.237c-0.52-0.63-1.251-1.02-2.064-1.099
			c-0.818-0.08-1.607,0.165-2.237,0.684c-0.629,0.519-1.019,1.252-1.098,2.065c-0.078,0.812,0.164,1.606,0.684,2.237
			c0.055,0.066,0.121,0.118,0.18,0.179l-3.476,4.44h-6.649l-3.23-4.667c1.014-0.828,1.428-2.243,0.907-3.515
			c-0.311-0.756-0.895-1.346-1.647-1.661c-0.751-0.316-1.581-0.319-2.339-0.011c-0.755,0.31-1.345,0.894-1.661,1.646
			c-0.315,0.753-0.319,1.584-0.01,2.34c0.483,1.182,1.627,1.898,2.832,1.898c0.385,0,0.776-0.073,1.153-0.228
			c0.081-0.033,0.149-0.081,0.226-0.12l3.316,4.788l-3.162,5.477h-6.617l-3.347,5.797l-5.736,0.077
			c-0.149-1.283-1.094-2.386-2.427-2.65c-1.65-0.327-3.264,0.749-3.594,2.402c-0.159,0.8,0.004,1.615,0.457,2.293
			c0.454,0.679,1.146,1.14,1.945,1.298c0.201,0.041,0.402,0.06,0.603,0.06c0.598,0,1.184-0.176,1.691-0.516
			c0.679-0.454,1.142-1.145,1.3-1.945c0.02-0.101,0.019-0.2,0.028-0.3l5.692-0.077l3.387,5.867h6.665l1.19,5.515
			c-1.186,0.436-2.031,1.573-2.01,2.906c0.025,1.668,1.393,3.008,3.056,3.008c0.015,0,0.031,0,0.048,0
			c1.684-0.026,3.034-1.418,3.009-3.104c-0.028-1.669-1.394-3.008-3.056-3.008c-0.016,0-0.031,0-0.049,0
			c-0.129,0.002-0.251,0.027-0.376,0.044l-1.213-5.635l3.275-5.675h6.617l3.36-5.82l5.659,0.192
			c0.063,1.304,0.952,2.477,2.282,2.816c0.252,0.064,0.508,0.096,0.761,0.096c0.542,0,1.075-0.145,1.555-0.429
			c0.702-0.417,1.2-1.082,1.4-1.873C423.514,137.075,423.396,136.252,422.979,135.55z M411.27,123.781
			c0.063-0.642,0.371-1.221,0.867-1.631c0.498-0.41,1.133-0.6,1.768-0.54c0.642,0.063,1.221,0.371,1.631,0.868
			s0.603,1.125,0.54,1.767c-0.062,0.642-0.37,1.221-0.867,1.631c-0.497,0.41-1.125,0.603-1.767,0.539
			c-0.642-0.061-1.222-0.369-1.632-0.867C411.4,125.051,411.207,124.424,411.27,123.781z M395.283,125.778
			c-0.594-0.249-1.057-0.715-1.301-1.313c-0.243-0.596-0.241-1.252,0.009-1.848c0.249-0.594,0.716-1.057,1.313-1.3
			c0.294-0.121,0.604-0.181,0.913-0.181c0.316,0,0.633,0.063,0.934,0.189c0.595,0.25,1.057,0.715,1.301,1.312
			c0.43,1.049,0.058,2.224-0.82,2.863c-0.046,0.007-0.091,0.022-0.132,0.05c-0.033,0.022-0.058,0.051-0.079,0.081
			c-0.094,0.055-0.186,0.112-0.288,0.155C396.533,126.031,395.878,126.028,395.283,125.778z M400.001,154.792
			c0.012,0,0.024,0,0.038,0c1.313,0,2.392,1.058,2.412,2.375c0.021,1.331-1.045,2.431-2.375,2.452
			c-1.333,0.034-2.431-1.045-2.452-2.376C397.604,155.912,398.67,154.812,400.001,154.792z M381.399,143.218
			c-0.126,0.632-0.49,1.178-1.026,1.536c-0.536,0.358-1.182,0.485-1.812,0.361c-0.633-0.125-1.179-0.49-1.537-1.026
			c-0.358-0.536-0.487-1.179-0.361-1.812c0.229-1.148,1.239-1.944,2.368-1.944c0.154,0,0.312,0.015,0.47,0.046
			C380.808,140.639,381.658,141.912,381.399,143.218z M397.871,148.19h-6.362l-3.184-5.511l3.184-5.511h6.362l3.183,5.511
			L397.871,148.19z M407.923,142.241h-6.363l-3.183-5.511l3.183-5.511h6.302c0.012,0.012,0.02,0.026,0.032,0.038
			c0.019,0.015,0.043,0.013,0.063,0.022l3.139,5.436c0,0.003-0.002,0.005-0.002,0.009c0,0.007,0.004,0.013,0.004,0.021
			L407.923,142.241z M422.69,137.707c-0.159,0.625-0.553,1.15-1.107,1.479c-0.554,0.328-1.205,0.422-1.829,0.263
			c-1.114-0.285-1.845-1.308-1.812-2.413c0.008-0.026,0.018-0.052,0.019-0.082c0-0.016-0.006-0.031-0.008-0.047
			c0.012-0.131,0.025-0.263,0.06-0.395c0.329-1.291,1.649-2.069,2.936-1.742c0.625,0.16,1.15,0.553,1.479,1.107
			S422.85,137.082,422.69,137.707z"/>
		<path fill="#91D3FF" d="M380.115,126.765c-0.133-0.117-0.336-0.104-0.453,0.028c-0.016,0.017-1.531,1.702-4.042,2.328
			c-0.825,0.207-1.878-0.235-3.098-0.746c-0.328-0.137-0.675-0.281-1.036-0.42c0.071-0.532,0.113-1.055,0.156-1.565
			c0.204-2.45,0.381-4.564,3.188-6.186c0.153-0.088,0.206-0.285,0.116-0.438c-0.088-0.154-0.285-0.208-0.438-0.118
			c-3.099,1.789-3.297,4.168-3.507,6.687c-0.038,0.462-0.079,0.927-0.136,1.393c-2.116-0.732-4.738-1.131-7.793,0.796
			c-3.269,2.062-4.217,4.381-4.629,6.589c-0.21-0.077-0.417-0.155-0.618-0.232c-1.344-0.509-2.505-0.948-3.524-0.657
			c-2.688,0.768-4.216,2.596-4.28,2.673c-0.112,0.137-0.093,0.339,0.044,0.453c0.059,0.048,0.131,0.073,0.204,0.073
			c0.093,0,0.185-0.041,0.248-0.117c0.014-0.018,1.474-1.753,3.96-2.464c0.814-0.231,1.883,0.171,3.121,0.64
			c0.236,0.09,0.484,0.183,0.739,0.275c-0.063,0.417-0.111,0.828-0.159,1.231c-0.287,2.44-0.535,4.548-3.396,6.073
			c-0.156,0.083-0.217,0.278-0.133,0.435c0.058,0.108,0.169,0.17,0.284,0.17c0.051,0,0.103-0.012,0.15-0.038
			c3.156-1.684,3.436-4.055,3.731-6.565c0.043-0.363,0.085-0.726,0.138-1.091c2.195,0.725,4.943,1.173,8.082-0.958
			c3.038-2.063,3.975-4.288,4.349-6.411c0.306,0.121,0.602,0.245,0.889,0.365c1.327,0.554,2.473,1.033,3.501,0.776
			c2.711-0.676,4.301-2.451,4.368-2.526C380.262,127.085,380.248,126.883,380.115,126.765z M361.655,130.407l3.347,4.982
			c-0.725,0.295-1.42,0.453-2.088,0.514l-2.564-3.979C360.691,131.411,361.118,130.905,361.655,130.407z M359.058,135.331
			c0.168-0.938,0.426-1.875,0.923-2.796l2.189,3.398C361.05,135.917,360.014,135.653,359.058,135.331z M366.677,134.481
			c-0.31,0.211-0.614,0.389-0.916,0.548l-3.47-5.168c0.339-0.267,0.71-0.532,1.126-0.794c0.129-0.082,0.258-0.155,0.388-0.229
			l3.521,5.171C367.12,134.167,366.908,134.325,366.677,134.481z M367.985,133.467l-3.419-5.02c0.591-0.269,1.163-0.447,1.715-0.553
			l2.745,4.494C368.729,132.75,368.386,133.11,367.985,133.467z M369.487,131.771l-2.433-3.984c1.363-0.11,2.601,0.188,3.722,0.588
			C370.588,129.509,370.243,130.648,369.487,131.771z"/>
	</g>
	<g>
		<path fill="#FFC3A2" d="M274.111,258.247c0.106-3.853,0.276-26.671,0.455-34.04c0.16-6.636-0.467-12.915-0.467-12.915
			l-0.182-6.794c0,0-23.758-3.45-25.363,1.205c-1.605,4.655-1.947,12.2-1.947,12.2s0.746,19.335,0.746,21.476
			s0.007,13.461-0.208,17.741c-0.214,4.282-3.528,30.299-3.528,30.299c0.103,3.839,2.853,4.047,4.514,4.306s3.217-0.935,2.334-1.971
			c-0.729-0.857-1.038-3.529-0.57-6.537c0.764-2.02,4.977-21.683,5.084-25.214c0.106-3.532,1.901-10.242,2.115-13.987
			c0.161-2.832,2.953-18.08,4.307-25.352l0.295,0.845c0,0,2.247,18.406,2.247,23.65s1.152,12.808,1.152,16.659
			c0,3.854,2.074,27.185,2.074,27.185s2.656,3.225,4.047,3.01c1.392-0.214,1.245-4.877,1.245-4.877S274.004,262.101,274.111,258.247
			z"/>
		<path fill="#003C60" d="M277.586,152.799c0,0,3.593-0.941,4.838-4.314c1.245-3.372-3.269-6.899-5.654-9.545
			c-2.387-2.646-9.857-3.268-12.296,1.868c-2.438,5.136-3.579,8.664-6.329,10.998c-2.749,2.334-3.424,7.575-1.349,11.777
			s5.343,1.452,5.343-1.919c0,0-0.727,1.608,2.076,1.296C267.017,162.648,275.601,152.858,277.586,152.799z"/>
		<path fill="#FFFFFF" d="M262.788,157.01c0,0-7.691,1.346-8.976,1.774c-1.283,0.428-5.899,47.881-5.899,47.881
			s6.421,2.035,14.982,2.569c8.561,0.535,11.13-1.071,11.13-1.071s0.214-12.092,0.855-15.516c0.643-3.425,1.07-7.705,1.07-7.705
			s3.21,10.809,4.388,13.698c1.177,2.89,11.237,17.336,11.237,17.336s4.814-2.247,7.598-2.461c0,0-8.775-13.591-9.417-14.875
			c-0.644-1.285-1.285-3.425-1.285-3.425l-1.391-1.177c0,0-5.458-18.622-5.993-23.437c-0.535-4.816-1.392-8.133-1.819-8.668
			C278.841,161.397,269.316,156.582,262.788,157.01z"/>
		<path fill="#003C60" d="M247.977,202.907c0,0,18.365,5.603,25.991,2.49c0,0,1.089,15.563,0.934,35.174s-0.311,25.213-0.311,25.213
			s-4.358,1.245-12.141,1.245c-7.781,0-16.964-2.179-16.964-2.179s2.179-25.058,1.401-29.104
			C246.109,231.7,245.486,214.892,247.977,202.907z"/>
		<path fill="#FFC3A2" d="M278.72,148.068c0,0,0.491,0.592-1.134,4.73c-1.626,4.138-3.986,6.734-4.483,6.996
			c-0.886,0.467-1.936-0.35-1.936-0.35s-1.07,2.863-1.315,3.109c-0.247,0.247-2.76-0.739-3.598-1.625
			c-0.838-0.887-1.281-3.252-1.281-3.252l1.681-5.611c0,0-1.828-1.336-1.631-3.011c0.196-1.675,1.33-3.006,2.217-2.759
			c0.888,0.246,0.295,3.399,0.788,3.3s1.971-4.385,2.021-4.532c0.049-0.148,2.135,0.995,4.335,1.921
			C277.191,148.167,278.72,148.068,278.72,148.068z"/>
		<path fill="#E8E8E8" d="M253.813,158.784c0,0,5.351,4.708,6.743,9.738c1.391,5.029-1.927,22.258-1.606,24.614
			c0.321,2.354-0.106,3.745-0.106,3.745s0.962,4.281,1.391,7.705c0.429,3.425,2.569,12.843,2.569,12.843s-5.911-0.674-7.837,2.43
			c0,0-2.972-11.312-3.079-13.667c-0.106-2.354-2.034-10.488-2.034-12.092c0-1.605,0.214-13.485,0.214-15.625
			s1.769-15.536,2.168-17.016C252.984,158.676,253.813,158.784,253.813,158.784z"/>
		<path fill="#E8E8E8" d="M275.951,184.942c0,0,2.141-16.374,1.391-20.869c-0.749-4.495,2.462-0.856,1.606,8.989
			C278.092,182.907,275.951,184.942,275.951,184.942z"/>
		<path fill="#FFC3A2" d="M263.152,216.647c0,0,4.174,1.525,5.297,1.847s1.927,2.087,1.927,2.087s-2.648,0.16-3.692-0.241
			c0,0-0.08,1.043-2.97,1.284c-2.89,0.24-8.748-1.766-8.748-1.766S256.169,215.523,263.152,216.647z"/>
		<path fill="#FFC3A2" d="M291.576,215.976c0,0,1.283,2.249,2.888,3.452c1.606,1.204,3.773,1.444,5.138,1.605
			c1.364,0.16-1.766-2.408-2.809-2.569c-1.044-0.16,3.13,0.081,4.173,0.804c1.044,0.723,1.364,1.846,2.568,1.926s0-1.444,0-1.444
			s0.964,1.284,1.687,1.284c0.721,0-0.081-1.605-0.081-1.605s0.883,1.364,1.444,1.364c0.563,0,0.24-1.444-0.16-2.167
			c-0.401-0.723-1.686-2.328-2.488-3.051c-0.803-0.722-4.762-2.06-4.762-2.06S293.742,213.809,291.576,215.976z"/>
		<path fill="#6D3C16" d="M243.771,286.276c0,0,1.271,2.582,3.81,3.64c2.54,1.056,2.263-1.115,2.263-1.408
			c0-0.294,4.873,3.697,5.9,4.813c1.029,1.114,0.425,1.408-2.842,1.584c-3.266,0.177-9.918,0.058-10.281-0.235
			C242.258,294.377,242.924,288.624,243.771,286.276z"/>
		<path fill="#6D3C16" d="M266.805,284.721c0,0,1.27,2.582,3.81,3.639s1.537-2.517,1.537-2.81c0-0.294,5.6,5.099,6.628,6.214
			c1.028,1.114,0.424,1.407-2.843,1.584c-3.266,0.177-9.917,0.059-10.28-0.234S265.958,287.067,266.805,284.721z"/>
		<path fill="#E8E8E8" d="M265.369,156.177c0,0,1.867,3.657,3.619,4.513l0.466,1.4l0.856-1.128l0.738-0.778l-0.427,2.179
			l-1.245,1.012c0,0-2.841-0.662-4.008-2.763c-1.168-2.101-1.829-3.658-1.829-3.658L265.369,156.177z"/>
		<path fill="#003C60" d="M279.56,152.229c-0.102-0.229-0.285-0.403-0.519-0.494l-2.084-0.805c-0.233-0.091-0.486-0.083-0.716,0.017
			c-0.191,0.085-0.333,0.237-0.431,0.42l-0.765-0.31l0.026-0.068c0.09-0.232,0.084-0.486-0.018-0.714
			c-0.101-0.228-0.284-0.403-0.518-0.493l-2.613-1.009c-0.233-0.09-0.486-0.084-0.714,0.017c-0.203,0.09-0.354,0.252-0.45,0.449
			l-2.517-1.573c-0.146-0.09-0.338-0.047-0.43,0.099c-0.091,0.146-0.046,0.337,0.099,0.429l2.605,1.628l-0.212,0.55
			c-0.09,0.232-0.085,0.487,0.017,0.715c0.101,0.228,0.285,0.403,0.518,0.493l2.613,1.009c0.11,0.043,0.225,0.063,0.34,0.063
			c0.128,0,0.256-0.028,0.375-0.08c0.228-0.101,0.402-0.285,0.492-0.518l0.161-0.416l0.744,0.302l-0.228,0.589
			c-0.09,0.233-0.084,0.486,0.017,0.715c0.102,0.228,0.285,0.403,0.518,0.494l2.086,0.806c0.11,0.042,0.226,0.063,0.34,0.062
			c0.128,0,0.254-0.027,0.375-0.08c0.228-0.101,0.401-0.285,0.492-0.518l0.412-1.064C279.667,152.711,279.66,152.457,279.56,152.229
			z M274.08,151.83c-0.03,0.078-0.089,0.14-0.164,0.173c-0.076,0.033-0.161,0.036-0.239,0.006l-2.613-1.01
			c-0.077-0.03-0.139-0.088-0.173-0.164c-0.032-0.076-0.035-0.161-0.005-0.239l0.411-1.064c0.031-0.078,0.088-0.139,0.165-0.173
			c0.076-0.033,0.161-0.035,0.237-0.005l2.613,1.009c0.078,0.029,0.141,0.088,0.173,0.164c0.034,0.076,0.036,0.161,0.006,0.238
			L274.08,151.83z M278.996,152.72l-0.412,1.064c-0.03,0.077-0.088,0.139-0.164,0.173c-0.075,0.032-0.16,0.035-0.237,0.005
			l-2.086-0.805c-0.077-0.03-0.14-0.088-0.173-0.164s-0.035-0.16-0.006-0.238l0.411-1.064c0.031-0.078,0.089-0.139,0.166-0.173
			c0.039-0.018,0.081-0.027,0.123-0.027c0.039,0,0.076,0.007,0.114,0.021l2.085,0.805c0.077,0.03,0.14,0.088,0.173,0.165
			C279.023,152.557,279.025,152.642,278.996,152.72z"/>
	</g>
	<g>
		<g>
			<g>
				<path fill="#559EB7" d="M379.183,197.651c0-0.4-0.324-0.723-0.725-0.723h-3.476c-0.4,0-0.725,0.323-0.725,0.723
					c0,0.35,0.25,0.643,0.579,0.71v16.441c0,1.016,0.824,1.839,1.841,1.839c1.016,0,1.841-0.823,1.841-1.839V198.37
					C378.89,198.34,379.183,198.031,379.183,197.651z"/>
			</g>
			<g>
				<path fill="#559EB7" d="M385.981,197.651c0-0.4-0.325-0.723-0.725-0.723h-3.476c-0.4,0-0.725,0.323-0.725,0.723
					c0,0.35,0.249,0.643,0.579,0.71v16.441c0,1.016,0.823,1.839,1.841,1.839c1.017,0,1.84-0.823,1.84-1.839V198.37
					C385.688,198.34,385.981,198.031,385.981,197.651z"/>
			</g>
			<g>
				<path fill="#559EB7" d="M392.779,197.651c0-0.4-0.324-0.723-0.724-0.723h-3.476c-0.4,0-0.725,0.323-0.725,0.723
					c0,0.35,0.248,0.643,0.579,0.71v16.441c0,1.016,0.824,1.839,1.84,1.839c1.017,0,1.84-0.823,1.84-1.839V198.37
					C392.486,198.34,392.779,198.031,392.779,197.651z"/>
			</g>
			<g>
				<path fill="#559EB7" d="M399.579,197.651c0-0.4-0.325-0.723-0.725-0.723h-3.477c-0.399,0-0.725,0.323-0.725,0.723
					c0,0.35,0.249,0.643,0.58,0.71v16.441c0,1.016,0.823,1.839,1.84,1.839s1.84-0.823,1.84-1.839V198.37
					C399.285,198.34,399.579,198.031,399.579,197.651z"/>
			</g>
			<g>
				<path fill="#3C7F9B" d="M370.93,220.68h-0.749h-0.732v-23.079c0-0.408,0.331-0.741,0.74-0.741l0,0
					c0.41,0,0.741,0.333,0.741,0.741V220.68z"/>
				<path fill="#3C7F9B" d="M405.417,220.68h-0.75h-0.732v-23.079c0-0.408,0.332-0.741,0.741-0.741l0,0
					c0.41,0,0.741,0.333,0.741,0.741V220.68z"/>
				<rect x="367.352" y="218.636" fill="#3C7F9B" width="39.804" height="2.181"/>
				<rect x="370.879" y="199.824" fill="#3C7F9B" width="33.072" height="0.92"/>
			</g>
		</g>
		<g>
			<rect x="84.608" y="230.424" fill="#438ABA" width="330.461" height="62.282"/>
			<path fill="#3379A0" d="M415.069,230.424v7.268c-10.306-0.103-203.416-1.778-330.461,20.181v-27.448H415.069z"/>
			<rect x="68.34" y="221.006" fill="#69AFFF" width="354.437" height="11.558"/>
		</g>
		<g>
			<polygon fill="#559EB7" points="319.667,204.257 281.463,204.257 281.463,207.468 285.154,207.468 285.154,220.952 
				288.364,220.952 288.364,207.468 314.049,207.468 314.049,220.952 317.26,220.952 317.26,207.468 319.667,207.468 			"/>
			<polygon fill="#3C7F9B" points="316.938,189.088 303.815,189.088 304.792,190.8 304.818,190.8 304.818,204.298 316.056,204.298 
				316.056,190.749 			"/>
			<path fill="#3C7F9B" d="M290.559,200.087v-3.46c0.606-0.365,1.018-1.023,1.018-1.783v-1.07h-2.222h-2.22v1.07
				c0,0.748,0.396,1.399,0.99,1.768v3.476h-4.067v4.174h10.996v-4.174H290.559z"/>
			<path fill="#559EB7" d="M289.277,184.155c-3.079,0-4.607,2.235-4.244,4.25c0.442,2.448,2.102,3.411,2.102,3.411v1.958l2.64,0.036
				l1.776-0.022v-1.957c0,0,1.658-0.964,2.099-3.413C294.013,186.403,292.519,184.155,289.277,184.155z"/>
			<g>
				<polygon fill="#559EB7" points="304.846,200.244 297.793,200.244 297.793,194.947 291.588,194.947 291.588,194.305 
					298.429,194.305 298.429,199.602 304.846,199.602 				"/>
			</g>
		</g>
		<g>
			<rect x="210.149" y="213.809" fill="#3C7F9B" width="23.116" height="7.225"/>
			<rect x="214.083" y="210.358" fill="#559EB7" width="15.048" height="3.612"/>
			<path fill="#559EB7" d="M215.594,201.69v9.685h11.985v-9.685H215.594z M225.762,210.291h-8.51v-7.517h8.51V210.291z"/>
			<path fill="#559EB7" d="M223.834,196.432h-5.057v1.445h0.683v8.588c0,1.042,0.844,1.886,1.886,1.886s1.887-0.844,1.887-1.886
				v-8.588h0.602V196.432z"/>
		</g>
		<g>
			<path fill="#559EB7" d="M155.754,197.434l-3.565-4.387l1.521-1.411c0.6-0.556,1.545-0.488,2.059,0.148l1.987,2.462
				c0.522,0.646,0.376,1.599-0.314,2.06L155.754,197.434z"/>
			<path fill="#559EB7" d="M145.237,204.789l-2.207-2.717l0.941-0.872c0.371-0.344,0.957-0.303,1.275,0.092l1.23,1.523
				c0.323,0.399,0.233,0.99-0.194,1.276L145.237,204.789z"/>
			<path fill="#3C7F9B" d="M149.757,196.128l-1.696,1.68c2.887,1.432,4.871,4.409,4.871,7.85c0,4.838-3.922,8.76-8.761,8.76
				c-3.474,0-5.849-1.086-7.265-4.017l-1.171,1.298c1.84,3.697,4.509,5.68,8.919,5.68c6.207,0,11.238-5.032,11.238-11.239
				C155.893,201.771,153.398,197.987,149.757,196.128z"/>
			<rect x="136.166" y="217.56" fill="#3C7F9B" width="15.997" height="3.67"/>
			<polygon fill="#559EB7" points="149.496,217.548 139.39,217.548 140.471,213.299 148.4,213.299 			"/>
			<polygon fill="#3C7F9B" points="146.856,204.378 145.284,202.535 143.627,200.605 152.319,192.087 156.833,197.629 			"/>
			<rect x="132.767" y="210.271" fill="#559EB7" width="8.18" height="1.518"/>
			<circle fill="#3C7F9B" cx="144.428" cy="215.521" r="0.665"/>
		</g>
	</g>
	<g>
		<ellipse fill="#2C6E93" cx="105.903" cy="309.722" rx="23.865" ry="3.532"/>
		<path fill="#0069AF" d="M126.61,217.902l5.244-0.964l1.337,17.069l-2.033,0.697C131.158,234.705,124.417,222.718,126.61,217.902z"
			/>
		<path fill="#6D3C16" d="M111.093,305.495c0,0-0.054,2.782-0.054,4.387c0,0,8.615,0.856,16.802,0.215c0,0,0.642-0.321-1.017-1.605
			c-1.659-1.283-7.919-3.531-7.919-3.531S111.842,304.906,111.093,305.495z"/>
		<path fill="#6D3C16" d="M85.57,303.944c0,0-0.268,2.62-0.321,3.798c-0.053,1.177-0.053,1.177-0.053,1.177s2.996,0.268,7.009,0.107
			s8.401-0.375,8.936-0.428c0.536-0.055,0.963-0.749-2.515-2.194c-3.478-1.444-6.046-2.515-6.046-2.515L85.57,303.944z"/>
		<path fill="#003C60" d="M102.478,240.696c0,0,2.997,14.769,3.21,21.939c0.214,7.17-0.535,8.882,0.214,9.845
			c0.75,0.963,1.392,0.535,1.285,2.675c-0.107,2.142,0,3.746,0.749,7.384c0.749,3.64,2.354,22.903,2.354,22.903
			s6.314,0.962,9.097-0.107c0,0-0.106-25.256-0.106-27.824c0-2.569-0.643-5.458-0.643-7.813c0-2.355-0.856-28.467-1.605-31.249
			S102.799,239.733,102.478,240.696z"/>
		<path fill="#043047" d="M100.231,239.947c0,0-2.569,20.118-3.104,25.148c-0.535,5.031,0.75,8.668,0.322,10.809
			c-0.428,2.142-4.174,28.36-4.174,28.36h-8.026c0,0-0.963-11.559-0.535-14.233s0.643-11.558,0.643-14.127
			c0-2.567,1.07-9.523,1.07-11.557c0-2.034-1.927-16.481,0-25.47C88.352,229.888,99.268,232.884,100.231,239.947z"/>
		<path fill="#D3D3D3" d="M82.403,161.976c0,0-3.923,7.689-5.047,11.461c-1.124,3.772-6.742,17.497-7.544,21.35
			c0,0,3.531,5.939,6.983,10.514c3.451,4.575,8.267,9.23,8.267,9.23l1.364-9.07c0,0-4.896-8.347-6.742-10.193l6.1-12.281
			l-2.809-21.269L82.403,161.976z"/>
		<path fill="#003C60" d="M92.9,136.944c0,0,0.268-2.14,4.334-3.264c4.066-1.124,11.986,0.803,15.196,3.639
			c0,0-0.963,1.231-1.659,1.552l0.803,0.695c0,0-0.428,0.521-2.997,0.843c-2.568,0.321-8.882,12.748-8.882,12.748l-4.762-1.07
			c0,0-4.816-8.347-4.816-10.755C90.118,138.924,92.9,136.944,92.9,136.944z"/>
		<path fill="#FFC3A2" d="M103.441,156.314v-1.658c0,0,2.623,0.856,5.084,0.909c0,0,1.07-11.237,0.267-15.197l-3.531-1.284
			c0,0,0.214,2.89-0.268,3.799c-0.481,0.909-1.338,1.658-1.338,1.658s0.054,1.445-0.321,2.194c0,0-0.749-2.034-2.087-2.034
			c-1.337,0-1.819,3.692-0.107,4.548l-1.873,3.157l-4.334-0.321l-0.107,3.104L103.441,156.314z"/>
		<path fill="#FFFFFF" d="M120.534,223.841l-4.816-10.915c0,0,0.443,2.607,0.983,6.396c0.815,5.772,1.862,14.286,1.907,20.49
			c0,0-11.313,2.247-19.34,1.605l-1.528-3.61l-1.04,3.455l-13.24-0.963c0,0,0.797-26.57,2.003-37.563l-0.321-2.093l0.719-2.485
			c0,0-3.769-31.142-3.448-36.195l10.113-4.816l0.887-2.33l10.427,1.367l0.963,1.76l11.481,4.341c0,0,1.849,6.177,2.568,13.316
			c0.719,7.146,0.481,17.503,0.481,17.503l1.124,2.57l-0.16,1.604c0,0,2.485,8.348,4.495,14.446
			c2.01,6.101,2.806,10.749,2.806,10.749L120.534,223.841z"/>
		<path fill="#FFC3A2" d="M121.34,223.601l1.244,2.77c0,0,0.121,3.531,0.842,5.858c0.723,2.329,0.883,4.135,0.883,4.135
			l-0.602,1.726c0,0,0.281,0.601,1.445,0.521c1.164-0.081,1.284-1.003,1.284-1.003s2.047-0.603,3.01-1.124s1.525-0.642,1.806-1.204
			c0.28-0.562,0.04-2.649,0.04-3.372c0-0.722-4.455-9.431-4.455-9.431L121.34,223.601z"/>
		<path fill="#0069AF" d="M123.708,238.089l-8.441,2.232l-2.194-19.477l5.672-1.177l1.792,4.173l0.803-0.24l1.417,2.703
			c0,0,0.482,4.975,1.338,7.864C124.952,237.058,123.708,238.089,123.708,238.089z"/>
		<path fill="#D3D3D3" d="M116.701,219.321c-0.109,0.161-0.206,0.187-0.206,0.187s-9.683-17.016-9.683-24.399
			c0-7.384,1.605-29.216,1.605-29.216s-0.642,28.895,0.803,31.944c1.445,3.051,6.498,15.089,6.498,15.089
			S116.161,215.533,116.701,219.321z"/>
		<path fill="#D3D3D3" d="M109.862,165.973l5.939-2.809C115.802,163.164,111.387,161.879,109.862,165.973z"/>
		<path fill="#E8E8E8" d="M89.877,201.208c0,0,7.464-0.16,12.36,0.803l-0.481,2.969l-12.842-0.562
			C88.914,204.418,88.994,201.69,89.877,201.208z"/>
	</g>
	<g>
		<ellipse fill="#2C6E93" cx="358.032" cy="309.722" rx="28.894" ry="3.532"/>
		<path fill="#6D3C16" d="M342.462,302.15c0,0-9.873,4.852-10.114,6.003c-0.239,1.151,8.026,2.055,13.164,1.809
			c5.137-0.246,7.063-0.575,7.705-0.987c0.642-0.411-0.16-6.33-0.16-6.33S343.505,301.329,342.462,302.15z"/>
		<path fill="#6D3C16" d="M371.035,303.457c0,0-0.162,5.43,0.32,6.088c0.482,0.657,7.545,0.986,10.354,0.492
			c2.81-0.492,3.692-0.904,3.773-1.233c0.079-0.33-4.735-5.676-6.261-6.662C377.697,301.154,371.035,303.457,371.035,303.457z"/>
		<path fill="#003C60" d="M339.091,229.478c0,0,0.481,21.538,1.765,27.13c1.285,5.59,2.088,28.609,2.409,32.884
			c0.32,4.275-0.16,12.496-0.16,12.496s3.853,3.289,10.434,2.96c0,0,2.087-13.318,1.284-18.58
			c-0.804-5.261-1.445-17.757-1.284-20.717c0.16-2.96,0.802-21.046,0.802-24.005c0-2.96,1.285-11.017,1.285-11.017
			S345.832,227.34,339.091,229.478z"/>
		<path fill="#043047" d="M357.391,231.897c0,0,5.136,23.523,6.1,27.638c0.963,4.111,0.642,7.566,1.445,9.869
			c0.802,2.303,1.765,12.503,3.05,17.768c1.284,5.263,2.728,16.779,2.728,16.779s4.816,1.645,9.632,0.164
			c0,0-0.642-22.043-1.283-26.321c-0.643-4.275-4.175-13.159-4.496-15.299c-0.32-2.139-1.443-7.402-1.443-8.883
			c0-1.481-0.803-21.386-2.249-26.157c-1.443-4.771-9.951-3.125-9.951-3.125L357.391,231.897z"/>
		<path fill="#D3D3D3" d="M359.959,157.117c0,0,3.745,1.819,5.778,7.277c2.034,5.458,6.85,19.155,7.706,20.761
			c0.855,1.605-2.248,13.805-5.352,17.873c-3.104,4.065-10.06-46.66-10.06-46.66L359.959,157.117z"/>
		<path fill="#FFC3A2" d="M329.834,141.867c0,0-0.054,2.14,0.748,4.334c0.804,2.193,4.709,9.15,5.619,9.738
			c0.909,0.589,4.334-1.659,4.334-1.659l0.428,1.605l7.385-2.301c0,0-1.713-4.495-2.087-9.31c-0.375-4.816-3.051-7.706-7.063-8.348
			C335.184,135.286,330.048,138.978,329.834,141.867z"/>
		<path fill="#FFC3A2" d="M318.921,221.973c0,0-1.219,1.193-2.776,1.296c-1.555,0.104-4.616-1.011-5.731-1.556
			c-1.116-0.546-3.165-0.468-3.735-0.648c-0.57-0.182,0.597-1.245,1.92-1.064c0,0,0.104-0.544,0.648-0.829
			c0.544-0.285,1.504-0.052,1.504-0.052s0.233-0.467,0.7-0.648c0.467-0.183,1.22,0.051,1.22,0.051s0.234-0.492,0.777-0.7
			c0.546-0.206,1.298,0.183,2.258,0.675c0.959,0.492,3.658,2.671,3.658,2.671L318.921,221.973z"/>
		<path fill="#003C60" d="M329.66,143.098c0,0,1.283,3.13,2.688,4.615c1.405,1.485,0.643-1.083,0.924-1.926
			c0.281-0.843,1.846-0.241,2.568,1.646c0.722,1.886-0.361,2.568-0.361,2.568s4.254,2.368,6.061,2.127
			c1.805-0.241,2.97-1.926,5.899-1.686c0,0,0.079-9.512-0.442-11.558c-0.521-2.047-2.367-2.488-2.367-2.488
			s-1.967-1.966-5.418-2.809c-3.451-0.843-7.505,1.685-9.15,3.491c-1.645,1.806-2.769,4.173-2.688,5.178
			c0.08,1.002,0.883,0.883,0.883,0.883s0.281,0.722,0.603,0.802C329.178,144.021,329.66,143.098,329.66,143.098z"/>
		<path fill="#FFFFFF" d="M314.45,219.348c0,0,0.883,2.086,6.18,2.889c0,0,8.509-17.818,10.675-21.912
			c2.168-4.093,3.451-13.163,3.451-13.163s1.605,7.064,2.648,10.755c1.044,3.692-2.006,29.938-1.685,34.513
			c0,0,13.965,1.363,24.319,0.48l1.284-5.456l2.328,4.976c0,0,9.311-0.24,12.44-1.686c0,0-9.651-31.986-9.873-37.963
			c-0.374-10.087-2.515-32.561-7.063-35.877c0,0-5.458-2.087-9.311-2.489l-1.285-2.086c0,0-5.938,1.685-8.347,3.532v0.963
			c0,0-9.31,4.093-10.515,5.297c-1.204,1.204-0.16,8.909-1.686,15.089c-1.524,6.179-1.845,9.23-2.888,10.755
			c0,0-0.884,2.247-0.965,2.889c-0.079,0.642-0.802,3.692-1.845,5.538C321.272,198.237,314.45,219.348,314.45,219.348z"/>
		<path fill="#E8E8E8" d="M335.131,186.975c0,0,2.14-5.138,2.14-12.521c0-7.384-5.671-10.808-5.671-11.344
			c0-0.535,3.104-0.856,5.671,3.317C339.84,170.601,340.161,181.73,335.131,186.975z"/>
		<path fill="#E8E8E8" d="M361.537,200.78c0,0-7.465-0.16-12.361,0.802l0.482,2.97l12.842-0.562
			C362.5,203.99,362.42,201.262,361.537,200.78z"/>
	</g>
	<g>
		<ellipse fill="#2C6E93" cx="178.032" cy="309.722" rx="23.865" ry="3.532"/>
		<path fill="#6D3C16" d="M174.572,307.699c0,0,0.211,1.975,0.105,2.503c-0.105,0.528-6.661,1.022-9.728,0.952
			c-3.066-0.071-5.251-0.035-6.344-0.353c-1.093-0.317-4.159-0.6,6.344-5.322c1.098-0.493,2.08-1.409,3.702-0.951
			C170.272,304.986,174.572,307.699,174.572,307.699z"/>
		<path fill="#6D3C16" d="M186.607,307.827c0,0-2.065,3.243-1.475,3.587s2.513,1.277,5.406,1.277c3.833,0,4.667-0.394,5.896-0.688
			c1.229-0.296,0.049-3.931,0.049-3.931s-3.194-2.557-5.258-2.604C189.161,305.419,186.901,307.139,186.607,307.827z"/>
		<path fill="#003C60" d="M177.175,234.918c0,0,4.816,25.47,5.029,29.216c0.214,3.745-0.535,7.49,0.214,9.845
			s1.605,5.459,1.712,8.989c0.107,3.532,1.927,17.123,2.248,18.941c0.321,1.82,0.455,6.048,0.455,6.048s1.899-2.409,4.04-2.302
			s5.833,3.345,5.833,3.345s0.375-7.197,0.053-9.017c-0.321-1.818-2.782-17.979-2.997-22.259c-0.214-4.281-0.75-14.34-0.75-16.48
			s-0.321-23.223-0.321-23.223L177.175,234.918z"/>
		<path fill="#043047" d="M177.175,233.633c0,0-1.82,24.4-1.82,29.645s0.428,7.919,0.107,10.594
			c-0.321,2.676,0.535,5.459,0.535,9.311c0,3.854-1.07,25.362-1.07,25.362s-6.046-3.209-7.438-3.424
			c-1.391-0.214-3.691,1.071-3.691,1.071s0.427-5.459,0.535-8.775c0.107-3.318,0.963-15.197,0.856-19.05
			c-0.107-3.854-2.176-27.089-2.354-34.458c-0.16-6.636,0.642-13.806,0.642-13.806L177.175,233.633z"/>
		<path fill="#E8E8E8" d="M167.704,165.893c0,0-2.836,3.264-3.478,4.12c-0.642,0.856-9.31,6.636-9.791,6.796
			c-0.482,0.16-1.338-2.409-1.927-3.799c-0.588-1.391-3.277-10.528-3.277-10.528l-4.655-1.003c0,0-0.469,9.551,0.655,14.208
			c1.124,4.654,2.407,9.257,3.049,10.701c0.642,1.445,3.317,2.247,8.882-0.749c5.565-2.998,9.738-5.083,9.738-5.083
			S168.4,166.962,167.704,165.893z"/>
		<path fill="#FFFFFF" d="M195.505,241.737c0,0-17.741,0.487-20.31,0.487l-3.448-7.627l-2.492,7.781l-11.313-0.237
			c0,0,0.913-5.162,2.1-12.008c0.886-5.079,1.919-11.076,2.85-16.579c1.221-7.229,2.254-13.599,2.511-15.878
			c0.719-6.344-1.124-13.882,0-22.474s2.646-9.471,2.646-9.471s4.578-3.05,14.852-5.297c0,0,10.916,4.495,12.039,5.214
			c1.124,0.725-2.408,34.435-2.408,34.435S196.225,217.902,195.505,241.737z"/>
		<g>
			<path fill="#559EB7" d="M152.309,150.747c0-0.261-0.212-0.473-0.473-0.473h-2.268c-0.26,0-0.471,0.212-0.471,0.473
				c0,0.229,0.161,0.419,0.377,0.463v10.723c0,0.663,0.538,1.2,1.201,1.2c0.663,0,1.2-0.537,1.2-1.2v-10.718
				C152.117,151.195,152.309,150.995,152.309,150.747z"/>
		</g>
		<path fill="#FFC3A2" d="M169.979,150.322c0,0,0.843-3.451,1.284-5.057c0.441-1.604,1.324-3.21,3.853-3.009
			c2.528,0.2,6.381,1.524,7.344,3.129c0,0,2.006,1.044,2.568,4.695c0.562,3.652-2.046,5.859-2.046,5.859s-0.402,4.133,0,6.1
			c0,0-4.133,6.1-6.903,4.856l-0.963-6.26C175.115,160.635,169.176,154.495,169.979,150.322z"/>
		<path fill="#003C60" d="M187.436,147.191c0,0,0.521-1.927-0.563-3.853c-1.083-1.927-5.979-3.692-8.989-4.936
			c-3.01-1.245-4.535-3.772-5.899-2.85s-0.521,3.652-0.521,3.652c-1.204-0.281-2.409-1.404-2.409,0.842
			c0,2.248,2.569,4.174,2.569,4.174s1.605-0.883,3.17-0.923c1.565-0.041,7.063,1.846,6.622,2.97c-0.441,1.124,0.08,2.97,0,3.291
			s-2.127,4.093-3.372,4.334c-1.243,0.241-1.404-1.124-3.932-2.006s-4.014-0.361-4.014-0.361l-0.12-1.204
			c0,0-1.806,4.816-1.806,5.859c0,1.043-0.161,2.448,2.127,3.612c2.287,1.163,4.494,0.963,7.103,0.361s4.575-4.815,4.575-4.815
			l0.803,2.126c0,0,4.656-6.019,5.017-7.825C188.158,147.833,187.436,147.191,187.436,147.191z M184.585,152.997
			c-0.695,1.124-2.247,1.58-2.327,1.338c-0.08-0.241-0.08-0.615-0.054-0.963c0,0,0.883-3.237,1.819-3.397
			C184.96,149.813,185.282,151.874,184.585,152.997z"/>
		<path fill="#E8E8E8" d="M188.76,170.307c-1.927,2.81-1.124,6.422-1.124,6.422l4.494,11.797l-12.039-2.889
			c0,0,1.686,4.093-1.524,6.662c0,0,13.884,4.655,18.7,5.618c4.816,0.963,6.261-2.488,6.742-3.772
			c0.482-1.284-7.544-22.313-7.785-23.517s-0.964-4.655-1.285-4.976C194.619,165.331,190.686,167.498,188.76,170.307z"/>
		<path fill="#FFC3A2" d="M180.495,185.951c0,0-3.097-2.11-4.527-3.131c-1.429-1.021-2.45-1.429-2.893-1.327
			c-0.442,0.102-4.05,2.484-4.322,2.654c-0.272,0.169-0.068,1.429,0.646,2.076c0.715,0.646,0.715,0.646,0.715,0.646
			s-0.579,0.919-0.238,1.431c0.34,0.509,1.055,0.68,1.055,0.68s0.136,0.579,0.578,0.851s1.021,0.238,1.021,0.238
			s0.375,0.341,0.885,0.477c0.51,0.137,1.939-0.51,2.144-0.442c0.204,0.067,1.157,0.816,2.212,1.157
			c1.055,0.34,1.94,0.238,1.94,0.238S182.401,188.743,180.495,185.951z"/>
		<path fill="#FFC3A2" d="M148.827,163.464c0,0-0.622,0.777-1.586,0.653c-0.964-0.125-2.582-1.742-2.675-2.178
			c-0.093-0.435,1.276-5.755,1.555-6.563c0.28-0.809,3.795-2.956,4.729-3.049c0.934-0.093,3.329,1.587,3.578,1.991
			c0.249,0.404-2.208-0.062-3.017-0.342l-2.271,1.213c0,0,2.489-0.343,3.143,0c0.653,0.342,1.742,1.306,2.115,1.648
			c0.374,0.342-0.218,0.715-1.245,0.311c-1.026-0.404-1.555-0.809-1.555-0.809l-1.369,0.436c0,0,1.338,0.125,1.93,0.498
			c0.591,0.374,1.4,1.493,0.871,2.084c0,0,0.124,0.342-0.031,0.902c-0.156,0.56-0.933,0.715-1.089,0.653
			c-0.156-0.063-0.062-0.498-0.778-0.653c-0.715-0.156-0.964,0.093-0.964,0.093S149.698,162.406,148.827,163.464z"/>
		<path fill="#E8E8E8" d="M181.456,214.264l10.808,0.214c0,0,1.499,11.452-0.535,15.303
			C189.696,233.633,179.53,233.954,181.456,214.264z"/>
		<path fill="#E8E8E8" d="M169.044,214.569c0,0-0.161,11.552-2.729,15.07c-1.201,1.65-4.065,2.279-6.273,0.494
			c0.886-5.079,1.919-11.076,2.85-16.579L169.044,214.569z"/>
	</g>
</g>
</svg>
